<?xml version="1.0" standalone="no"?>
<!DOCTYPE svg PUBLIC "-//W3C//DTD SVG 20010904//EN"
 "http://www.w3.org/TR/2001/REC-SVG-20010904/DTD/svg10.dtd">
<svg version="1.0" xmlns="http://www.w3.org/2000/svg"
 width="2409.000000pt" height="1400.000000pt" viewBox="0 0 2409.000000 1400.000000"
 preserveAspectRatio="xMidYMid meet">

<g transform="translate(0.000000,1400.000000) scale(0.100000,-0.100000)"
fill="#EB6440" stroke="none">
<path d="M24065 13979 c-4 -6 -14 -8 -22 -5 -8 3 -12 2 -9 -2 2 -4 -3692
-2160 -8210 -4791 -6872 -4002 -8214 -4787 -8214 -4805 0 -11 -97 -995 -214
-2186 -118 -1191 -213 -2167 -211 -2168 2 -2 767 628 1700 1400 933 771 1699
1404 1703 1406 4 1 673 -349 1486 -778 814 -430 1482 -777 1486 -773 4 4 2362
2854 5240 6333 2878 3479 5244 6337 5258 6353 14 15 23 27 19 27 -3 0 -9 -5
-12 -11z"/>
<path d="M12018 9902 c-6593 -2236 -11985 -4068 -11982 -4071 3 -3 1436 -224
3185 -492 1749 -267 3181 -488 3184 -490 2 -3 172 -1060 377 -2349 205 -1289
374 -2333 376 -2320 1 14 -67 1031 -153 2261 -85 1230 -155 2250 -155 2267 0
29 74 69 8538 4617 4695 2524 8560 4601 8587 4617 28 15 46 28 40 27 -5 0
-5404 -1830 -11997 -4067z"/>
<path d="M7162 120 c0 -14 2 -19 5 -12 2 6 2 18 0 25 -3 6 -5 1 -5 -13z"/>
</g>
</svg>
