<svg xmlns="http://www.w3.org/2000/svg"  viewBox="0 0 64 64" width="512px" height="512px">
    <g xmlns="http://www.w3.org/2000/svg">
        <defs/>
        <path fill="#85cbf8" d="M32 4A28 28 0 1 0 32 60A28 28 0 1 0 32 4Z"/>
        <path d="M32,61C16.01,61,3,47.991,3,32S16.01,3,32,3s29,13.009,29,29S47.99,61,32,61z M32,5 C17.112,5,5,17.112,5,32s12.112,27,27,27s27-12.112,27-27S46.888,5,32,5z"
              style="fill: rgb(227, 242, 255);"/>
        <rect width="26.52" height="46.333" x="16.242" y="9.141" rx="6" ry="6" style="" fill="#acb7d0"/>
        <path d="M 16.242 48 L 42.762 48 C 42.762 48 42.762 48 42.762 48 L 42.762 50.99 C 42.762 53.466 40.667 55.473 38.082 55.473 L 20.921 55.473 C 18.338 55.473 16.242 53.466 16.242 50.99 L 16.242 48 C 16.242 48 16.242 48 16.242 48 Z"
              style="" fill="#acb7d0"/>
        <path d="M 16.242 15.12 L 42.762 15.12 L 42.762 48 L 16.242 48 L 16.242 15.12 Z" style="" fill="#c5e4fa"/>
        <path d="M 28.722 48 L 43.058 34.272 L 42.762 23.339 L 17.021 48 L 28.722 48 Z M 16.242 45.759 L 42.762 20.351 L 42.762 15.866 L 16.242 41.275 L 16.242 45.759 Z M 16.242 38.286 L 40.422 15.12 L 36.521 15.12 L 16.242 34.549 L 16.242 38.286 Z"
              style="" fill="#e3f2ff"/>
        <path d="M 22.091 18.108 L 23.058 19.797 L 24.822 20.724 L 23.058 21.65 L 22.091 23.339 L 21.124 21.65 L 19.362 20.724 L 21.124 19.797 L 22.091 18.108 Z M 28.27 27.943 L 28.933 29.116 L 30.157 29.751 L 28.933 30.394 L 28.27 31.559 L 27.599 30.394 L 26.382 29.751 L 27.599 29.116 L 28.27 27.943 Z M 21.428 35.819 L 21.881 36.619 L 22.716 37.053 L 21.881 37.494 L 21.428 38.286 L 20.968 37.494 L 20.142 37.053 L 20.968 36.619 L 21.428 35.819 Z"
              style="" fill="#fff8f8"/>
        <path d="M 56.801 39.032 L 45.343 39.032 C 45.343 39.032 41.982 44.263 39.642 44.263 C 40.422 42.022 39.4 39.032 39.4 39.032 L 33.402 39.032 L 33.402 19.603 L 56.801 19.603 L 56.801 39.032 Z"
              style="" fill="#f9e3ae"/>
        <path d="M 20.142 41.275 C 19.71 41.275 19.362 41.609 19.362 42.022 L 19.362 43.517 C 19.362 44.092 20.012 44.452 20.532 44.164 C 20.773 44.031 20.921 43.783 20.921 43.517 L 20.921 42.022 C 20.921 41.609 20.572 41.275 20.142 41.275 Z M 24.042 41.275 C 23.611 41.275 23.261 41.609 23.261 42.022 L 23.261 43.517 C 23.261 44.092 23.911 44.452 24.431 44.164 C 24.673 44.031 24.822 43.783 24.822 43.517 L 24.822 42.022 C 24.822 41.609 24.472 41.275 24.042 41.275 Z M 27.941 41.275 C 27.511 41.275 27.162 41.609 27.162 42.022 L 27.162 43.517 C 27.162 44.092 27.812 44.452 28.332 44.164 C 28.573 44.031 28.722 43.783 28.722 43.517 L 28.722 42.022 C 28.722 41.609 28.373 41.275 27.941 41.275 Z M 31.842 41.275 C 31.411 41.275 31.062 41.609 31.062 42.022 L 31.062 43.517 C 31.062 44.092 31.712 44.452 32.232 44.164 C 32.473 44.031 32.621 43.783 32.621 43.517 L 32.621 42.022 C 32.621 41.609 32.273 41.275 31.842 41.275 Z M 35.742 41.275 C 35.31 41.275 34.962 41.609 34.962 42.022 L 34.962 43.517 C 34.962 44.092 35.612 44.452 36.132 44.164 C 36.373 44.031 36.521 43.783 36.521 43.517 L 36.521 42.022 C 36.521 41.609 36.172 41.275 35.742 41.275 Z M 29.502 50.242 C 28.301 50.242 27.55 51.488 28.151 52.484 C 28.429 52.947 28.945 53.231 29.502 53.231 C 30.703 53.231 31.453 51.986 30.852 50.99 C 30.574 50.527 30.059 50.242 29.502 50.242 Z M 30.281 12.877 L 33.402 12.877 C 34.002 12.877 34.378 12.254 34.077 11.756 C 33.937 11.525 33.68 11.383 33.402 11.383 L 30.281 11.383 C 29.681 11.383 29.306 12.005 29.606 12.503 C 29.746 12.735 30.003 12.877 30.281 12.877 Z M 25.601 12.877 L 27.162 12.877 C 27.762 12.877 28.138 12.254 27.837 11.756 C 27.698 11.525 27.44 11.383 27.162 11.383 L 25.601 11.383 C 25.001 11.383 24.625 12.005 24.926 12.503 C 25.066 12.735 25.323 12.877 25.601 12.877 Z"
              style="" fill="#8d6c9f"/>
        <path d="M 55.242 18.855 L 43.541 18.855 L 43.541 13.624 C 43.541 10.736 41.097 8.393 38.082 8.393 L 20.921 8.393 C 17.906 8.393 15.462 10.736 15.462 13.624 L 15.462 50.99 C 15.462 53.878 17.906 56.221 20.921 56.221 L 38.082 56.221 C 41.097 56.221 43.541 53.878 43.541 50.99 L 43.541 43.015 C 44.532 42.128 45.272 41.014 45.695 39.78 L 55.242 39.78 C 56.534 39.78 57.582 38.776 57.582 37.538 L 57.582 21.097 C 57.582 19.859 56.534 18.855 55.242 18.855 Z M 20.921 9.887 L 38.082 9.887 C 40.235 9.887 41.982 11.561 41.982 13.624 L 41.982 14.372 L 17.021 14.372 L 17.021 13.624 C 17.021 11.561 18.768 9.887 20.921 9.887 Z M 38.082 54.727 L 20.921 54.727 C 18.768 54.727 17.021 53.053 17.021 50.99 L 17.021 48.748 L 41.982 48.748 L 41.982 50.99 C 41.982 53.053 40.235 54.727 38.082 54.727 Z M 41.982 47.253 L 17.021 47.253 L 17.021 15.866 L 41.982 15.866 L 41.982 18.855 L 34.962 18.855 C 33.669 18.855 32.621 19.859 32.621 21.097 L 32.621 37.538 C 32.621 38.776 33.669 39.78 34.962 39.78 L 39.025 39.78 C 39.089 41.231 38.784 42.675 38.136 43.987 C 37.932 44.478 38.31 45.011 38.861 45.011 L 38.971 45.011 C 40.024 44.876 41.044 44.563 41.982 44.085 L 41.982 47.253 Z M 56.022 37.538 C 56.022 37.95 55.672 38.286 55.242 38.286 L 45.102 38.286 C 44.718 38.28 44.387 38.543 44.322 38.906 C 43.826 40.983 42.197 42.641 40.062 43.24 C 41.046 40.251 40.414 38.861 40.329 38.696 C 40.198 38.448 39.933 38.289 39.642 38.286 L 34.962 38.286 C 34.531 38.286 34.181 37.95 34.181 37.538 L 34.181 21.097 C 34.181 20.685 34.531 20.351 34.962 20.351 L 55.242 20.351 C 55.672 20.351 56.022 20.685 56.022 21.097 L 56.022 37.538 Z"
              style="" fill="#8d6c9f"/>
        <text style="fill: rgb(141, 108, 159); font-family: Arial, sans-serif; font-size: 11px; white-space: pre;"
              transform="matrix(0.830157, 0, 0, 0.910778, 8.966911, 5.808119)" x="31.425" y="29.279">SMS
        </text>
    </g></svg>
