<svg version="1.1" id="Layer_1" xmlns="http://www.w3.org/2000/svg" xmlns:xlink="http://www.w3.org/1999/xlink" x="0px" y="0px"
	 width="100%" viewBox="0 0 112 112" enable-background="new 0 0 112 112" xml:space="preserve">
<path fill="#FE7849" opacity="1.000000" stroke="none" 
	d="
M52.419945,111.929718 
	C42.381638,110.085609 33.101433,107.397263 25.125824,101.519157 
	C5.310996,86.915405 -3.358390,59.250862 7.577660,35.406517 
	C14.590127,20.116936 25.813848,10.502000 41.397846,5.345512 
	C42.292511,5.049483 43.332146,5.191595 44.960243,5.088101 
	C44.960243,13.562119 45.176338,21.841051 44.770336,30.089359 
	C44.692993,31.660656 42.368137,33.411774 40.720798,34.567680 
	C30.834347,41.504826 26.779903,51.470181 29.368092,62.627773 
	C32.083958,74.335770 37.515266,81.802612 52.559601,85.120995 
	C69.535767,88.865471 85.479828,73.070824 85.299019,58.113010 
	C85.162514,46.820663 80.623451,39.341408 71.948547,33.205673 
	C70.429192,32.131039 69.214607,29.608084 69.132187,27.699068 
	C68.810730,20.252909 69.001038,12.784661 69.001038,4.948834 
	C76.586212,5.559958 82.498787,8.780523 87.955902,12.615733 
	C101.650642,22.240276 109.269653,35.459133 111.107956,52.228794 
	C112.726799,66.996567 108.427750,79.712578 99.370735,91.150139 
	C87.474098,106.173706 71.663589,112.384087 52.419945,111.929718 
z"/>
<path fill="#FE7849" opacity="1.000000" stroke="none" 
	d="
M52.000824,17.017420 
	C52.000900,14.193189 51.996700,11.865647 52.001862,9.538126 
	C52.016582,2.903321 52.042591,2.874507 58.659222,3.014656 
	C59.484978,3.032146 60.308949,3.134042 61.727081,3.241995 
	C61.727081,15.291958 61.727081,27.332272 61.727081,39.175301 
	C77.945335,44.380817 78.479240,63.525833 68.637634,70.934578 
	C62.100567,75.855682 54.880604,76.126785 48.354160,72.631332 
	C43.508846,70.036263 40.156597,65.045456 39.929165,58.659733 
	C39.643467,50.637993 42.609737,44.743416 49.585278,40.662292 
	C50.793774,39.955246 51.831722,37.924267 51.890041,36.462578 
	C52.141705,30.154991 51.999603,23.831696 52.000824,17.017420 
z"/>
</svg>